<svg width="40" height="40" viewBox="0 0 40 40" fill="none" xmlns="http://www.w3.org/2000/svg">
<rect width="40" height="40" rx="10" fill="black" fill-opacity="0.15"/>
<g clip-path="url(#clip0)">
<path d="M30.7719 19.6281C30.7719 18.8875 30.7063 18.1844 30.5938 17.5H20V21.7281H26.0656C25.7938 23.1156 24.9969 24.2875 23.8156 25.0844V27.8969H27.4344C29.5531 25.9375 30.7719 23.05 30.7719 19.6281Z" fill="white"/>
<path d="M20.25 31C23.2875 31 25.8281 29.9875 27.6844 28.2719L24.0656 25.4594C23.0531 26.1344 21.7687 26.5469 20.25 26.5469C17.3156 26.5469 14.8312 24.5688 13.9406 21.8969H10.2094V24.7938C12.0562 28.4688 15.8531 31 20.25 31Z" fill="white"/>
<path d="M13.9406 21.8969C13.7063 21.2219 13.5844 20.5 13.5844 19.75C13.5844 19 13.7156 18.2781 13.9406 17.6031V14.7062H10.2094C9.44062 16.225 9 17.9312 9 19.75C9 21.5687 9.44062 23.275 10.2094 24.7937L13.9406 21.8969Z" fill="white"/>
<path d="M20.25 12.9531C21.9094 12.9531 23.3906 13.525 24.5625 14.6406L27.7687 11.4344C25.8281 9.61563 23.2875 8.5 20.25 8.5C15.8531 8.5 12.0562 11.0313 10.2094 14.7063L13.9406 17.6031C14.8312 14.9313 17.3156 12.9531 20.25 12.9531Z" fill="white"/>
</g>
<defs>
<clipPath id="clip0">
<rect width="22.5" height="22.5" fill="white" transform="translate(8.5 8.5)"/>
</clipPath>
</defs>
</svg>

